<svg version="1.0" xmlns="http://www.w3.org/2000/svg" width="1333.333" height="1333.333" viewBox="0 0 1000 1000"><path d="M293 109.5c-27.7 5.7-48.2 23.5-58 50.4-6.4 17.5-6.1-.7-5.8 290.6l.3 265 2.2 8c1.3 4.4 4.6 12.7 7.4 18.5 4.5 9 6.5 11.7 13.9 19.1 7.5 7.5 10 9.3 19.1 13.7 16 7.7 20.8 8.7 44.4 8.7 23.6 0 28.4-1 44.4-8.7 9.1-4.4 11.6-6.2 19.1-13.7 7.4-7.4 9.4-10.1 13.9-19.1 2.8-5.8 6.1-14.1 7.3-18.5 2.3-8 2.3-8 2.6-111.8l.3-103.7h-55l-.4 98.7c-.3 91.6-.4 99.2-2.1 104.8-3.5 11.8-9.6 19.8-17.9 23.6-5.8 2.6-18.6 2.6-24.4 0-8.3-3.8-14.3-11.8-17.9-23.6-1.8-5.7-1.9-18-2.1-261.5-.4-276.9-.6-265.2 5-277.3 3.2-7.1 8.4-12.7 14.4-15.7 3.9-1.9 6.3-2.4 12.8-2.4 6.5 0 8.9.5 12.8 2.4 6 3 11.2 8.6 14.4 15.7 5.1 11.1 5.2 13.5 5.3 115V382h55.1l-.4-102.3c-.3-93.1-.4-102.8-2-108.7-9.1-34.1-30.6-55.3-62.5-61.6-9.3-1.8-37.2-1.7-46.2.1zm210.7-.5c-32.3 5.5-55.9 29.2-64 64.5-2.1 9-2.1 9.7-2.5 261.5-.2 162.8.1 257.7.7 267 .6 8 1.9 17.9 3 22 8.5 31.9 31.3 53 63.2 58.6 14.6 2.5 39.4 1.5 51.4-2 28.1-8.4 46.8-28.2 54.7-57.6l2.3-8.5.3-263.5c.3-238.5.1-264.4-1.3-273.3-2-11.8-4.1-18.1-9.5-28.5-11.1-21.5-29.6-35.1-53.8-39.8-8-1.5-36.2-1.8-44.5-.4zm34.2 48c7.9 4 14.2 12.8 17.7 24.5 1.8 5.7 1.9 18.1 2.2 259 .2 172.2-.1 255.6-.8 261-1.7 12.9-4.4 19.7-10.6 26.5-7.1 7.7-11.4 9.3-22.7 8.9-7.2-.4-9-.8-13.2-3.4-8.7-5.4-14.2-15-16.5-28.7-.6-4.2-1-92-1-259 0-271.2-.2-260.8 4.9-272.3 4.2-9.5 12.2-16.8 20.4-18.5 5.8-1.2 15.3-.2 19.6 2zM138 446v332h56V114h-56v332zm508 0v332h47l.1-248.3.1-248.2 46.6 248.2L786.4 778H849V114h-52l-.1 242.2-.1 242.3-43.8-242c-24.2-133.1-43.9-242.1-44-242.3 0-.1-14.2-.2-31.5-.2H646v332zM136 864.9V907h9.4c13.4 0 19.9-2.8 25-10.8 5-8 6.1-13.5 6.1-30.7 0-18.1-1.2-23.9-6.7-32.1-5-7.3-10.3-9.6-23.4-10.2l-10.4-.5v42.2zm21.7-28.4c5.9 3.9 9.3 21.3 7.4 37.9-1.6 14.2-5.3 19.9-13.5 21.3l-3.6.6v-62.6l3.6.6c2 .3 4.7 1.3 6.1 2.2zM312 865v42h32v-11h-20v-27h17v-11h-17v-24h19v-11h-31v42zm169 0v42h11l.2-24.2.3-24.3 8.5 24 8.5 24 4.8.3 4.7.3V823h-10l-.2 24.6-.3 24.7-6.9-19.4c-3.8-10.7-7.7-21.8-8.8-24.7l-1.9-5.2H481v42zm176 0v42h11v-84h-11v42zm148-.1V907h11.5l-.3-28.7-.2-28.8 4.7 12.2c3.4 8.6 5.3 12.3 6.4 12.3 1.1 0 2.9-3.5 6-11.8l4.4-11.7.3 28.2.2 28.3h11v-84.1l-5.1.3-5.1.3-5.6 13.7c-3.1 7.6-5.9 13.8-6.2 13.8-.3 0-3-6.2-6.1-13.8l-5.5-13.7-5.2-.3-5.2-.3v42z" fill="#fff"/></svg>