<svg version="1.0" xmlns="http://www.w3.org/2000/svg" width="666.667" height="666.667" viewBox="0 0 500 500"><path d="M237.5 134c-26.4 4.2-50.2 21.7-61.9 45.5-11.7 23.6-11.1 53.2 1.3 76.1l3 5.5-5.5 8c-10.2 15.1-18.1 33.9-21.8 52.1-2.1 10.4-4 31.7-3.2 36 1.4 7.4 9.9 11.6 16.8 8.4 5.2-2.5 6.5-5.6 7.1-18.3 1.1-19.2 5.6-36.3 13.8-52.3 2.7-5.2 5.9-10.7 7.1-12.3l2.3-2.7 5 3.6c7.3 5.2 17.3 10.1 26.2 12.6 11.3 3.3 33.3 3.3 44.6 0 8.9-2.5 18.9-7.4 26.2-12.6l5-3.6 2.3 2.7c1.2 1.6 4.4 7.1 7.1 12.3 8.2 16 12.7 33.1 13.8 52.3.6 12.7 1.9 15.8 7.1 18.3 6.9 3.2 15.4-1 16.8-8.4.8-4.3-1.1-25.6-3.2-36-3.7-18.2-11.6-37-21.7-52l-5.4-7.9 4.2-8.6c6.1-12.4 8-21.5 8-37.2-.1-10.4-.6-14.6-2.3-21-4.7-16.3-14.1-31.2-26.8-41.8-8-6.8-23.6-14.7-33.6-17.2-8.3-2-24.3-2.7-32.3-1.5zm24.8 24.5c19.4 4.1 37 19.7 43.7 38.6 3 8.8 3.7 23.1 1.6 32.3-4.9 20.7-22.5 38.7-43.2 44.1-7.5 1.9-21.3 1.9-28.8 0-25.5-6.7-44.6-31.1-44.6-57.1 0-7.7 2.7-20 5.8-26.1 12.4-24.3 39.3-37.4 65.5-31.8z"/></svg>