<svg version="1.0" xmlns="http://www.w3.org/2000/svg" width="666.667" height="666.667" viewBox="0 0 500 500"><path d="M235.8 132.9c-12.7 4.1-22.4 12.5-28.4 24.6-3.1 6.3-3.8 8.9-4.2 15.5l-.5 8h-11.9c-7.7 0-13 .5-15.1 1.4-4.3 1.7-9.3 7.6-10.6 12.3-1.5 5.2-1.5 155.4-.1 160.5 1.4 4.8 5.3 9.4 10.1 11.8 3.7 1.9 6.3 2 74.9 2 68.6 0 71.2-.1 74.9-2 4.8-2.4 8.7-7 10.1-11.8 1.4-5.1 1.4-155.3-.1-160.5-1.3-4.7-6.3-10.6-10.6-12.3-2.1-.9-7.4-1.4-15.1-1.4h-11.9l-.5-8c-1-18-14.4-34.4-32.7-40-8.1-2.6-20.5-2.6-28.3-.1zm23 23.7c7.6 3.1 13.4 10.9 14.7 19.7l.7 4.7h-48.4l.7-4.7c1.3-8.7 7-16.5 14.5-19.7 4.6-2 13.1-2 17.8 0zM203 217c0 12.9 0 13 2.9 16.2 2.7 3 3.5 3.3 8.6 3.3s5.9-.3 8.6-3.3c2.9-3.2 2.9-3.3 2.9-16.2v-13h48v13c0 12.9 0 13 2.9 16.2 2.7 3 3.5 3.3 8.6 3.3s5.9-.3 8.6-3.3c2.9-3.2 2.9-3.3 2.9-16.2v-13h15v112H188V204h15v13zm109 125v3H188v-6h124v3z"/></svg>