<svg version="1.0" xmlns="http://www.w3.org/2000/svg" width="666.667" height="666.667" viewBox="0 0 500 500"><path d="M210 140.6c-27.7 5.9-51.7 25.1-63.6 50.9-6.5 14-7.9 21.1-7.8 39 0 14.5.3 16.9 2.8 25 3.5 11.4 9.5 23 16.7 32 29 36.4 82.7 44.8 121.7 19 3-1.9 5.7-3.5 6-3.5.4 0 13.7 13.1 29.7 29l29.1 29h5.3c4.7 0 5.7-.4 8.7-3.4 2.9-2.9 3.4-4.1 3.4-8.2v-4.8l-29.6-29.7-29.6-29.6 3.8-5.9c22.5-35.1 17.9-81.7-11-112.2-13.6-14.3-28.4-22.6-47.9-26.7-8.6-1.9-29-1.8-37.7.1zm35.7 23.9c9.6 2.5 21.2 8.8 28.8 15.7 22.8 20.9 28.7 51.8 15.3 79.8-3.4 7-5.6 10-13.2 17.5-14.3 14.3-27.9 19.9-47.6 19.9-11.2 0-20.6-2.1-30-6.9-40-20.3-49.4-73.8-18.6-106.2 12-12.7 23.3-18.5 42.6-21.7 4.1-.7 16.4.4 22.7 1.9z"/></svg>